<svg width="406" height="422" viewBox="0 0 406 422" fill="none" xmlns="http://www.w3.org/2000/svg" xmlns:c2pa="http://c2pa.org/manifest"><metadata><c2pa:manifest>AAAWgmp1bWIAAAAeanVtZGMycGEAEQAQgAAAqgA4m3EDYzJwYQAAABZcanVtYgAAAEdqdW1kYzJtYQARABCAAACqADibcQN1cm46YzJwYTo1OTJmN2ExZi0zYjRjLTRmYjAtOTM5Yi1iMDRmNzY2OTAxODAAAAADl2p1bWIAAAApanVtZGMyYXMAEQAQgAAAqgA4m3EDYzJwYS5hc3NlcnRpb25zAAAAALxqdW1iAAAARGp1bWRjYm9yABEAEIAAAKoAOJtxE2MycGEuaW5ncmVkaWVudC52MwAAAAAYYzJzaIAsmK1PSF/xGbuT8kf/JbEAAABwY2JvcqNpZGM6Zm9ybWF0bWltYWdlL3N2Zyt4bWxqaW5zdGFuY2VJRHgseG1wOmlpZDoyNTFhNjk4Yi1lMDMwLTRhN2UtYjgyYy04ZTY4ZThlYWVhZTlscmVsYXRpb25zaGlwaHBhcmVudE9mAAAB4mp1bWIAAABBanVtZGNib3IAEQAQgAAAqgA4m3ETYzJwYS5hY3Rpb25zLnYyAAAAABhjMnNoSRNRSIyGbwCU7eiUAysASgAAAZljYm9yomdhY3Rpb25zgqJmYWN0aW9ua2MycGEub3BlbmVkanBhcmFtZXRlcnOha2luZ3JlZGllbnRzgaJjdXJseC1zZWxmI2p1bWJmPWMycGEuYXNzZXJ0aW9ucy9jMnBhLmluZ3JlZGllbnQudjNkaGFzaFggzevZDLVYqRaDFB8h7UujU/5GJFbfLMFd5WQSyv0+bQ+kZmFjdGlvbngdY29tLmFudGhyb3BpYy5jbGF1ZGUucHJvdmlkZWRqcGFyYW1ldGVyc6F4H2NvbS5hbnRocm9waWMub3JpZ2luLWNvbmZpZGVuY2VndW5rbm93bmtkZXNjcmlwdGlvbnhmQ2xhdWRlIHByb3ZpZGVkIHRoaXMgZmlsZSBhdCB0aGUgcmVxdWVzdCBvZiBhIHVzZXIgYW5kIG1heSBoYXZlIGNyZWF0ZWQgb3IgbW9kaWZpZWQgdGhlIGZpbGUgY29udGVudHMubXNvZnR3YXJlQWdlbnShZG5hbWVmQ2xhdWRlcmFsbEFjdGlvbnNJbmNsdWRlZPUAAADIanVtYgAAAEBqdW1kY2JvcgARABCAAACqADibcRNjMnBhLmhhc2guZGF0YQAAAAAYYzJzaFX/3XMKJPRwtAaFyhoHnR8AAACAY2JvcqVjYWxnZnNoYTI1NmNwYWRNAAAAAAAAAAAAAAAAAGRoYXNoWCCvj0juU9I3Q481JtoRPIwo1eR1NxCYoxC3tf0BYb/dOGRuYW1lbmp1bWJmIG1hbmlmZXN0amV4Y2x1c2lvbnOBomVzdGFydBiiZmxlbmd0aBkeBAAAAj5qdW1iAAAAJ2p1bWRjMmNsABEAEIAAAKoAOJtxA2MycGEuY2xhaW0udjIAAAACD2Nib3KlY2FsZ2ZzaGEyNTZpc2lnbmF0dXJleE1zZWxmI2p1bWJmPS9jMnBhL3VybjpjMnBhOjU5MmY3YTFmLTNiNGMtNGZiMC05MzliLWIwNGY3NjY5MDE4MC9jMnBhLnNpZ25hdHVyZWppbnN0YW5jZUlEeCx4bXA6aWlkOjJhYWEyOWYzLTk1MTctNDc5MS1iM2MwLWZkZjUwYjc5NGVlZHJjcmVhdGVkX2Fzc2VydGlvbnODomN1cmx4LXNlbGYjanVtYmY9YzJwYS5hc3NlcnRpb25zL2MycGEuaW5ncmVkaWVudC52M2RoYXNoWCDN69kMtVipFoMUHyHtS6NT/kYkVt8swV3lZBLK/T5tD6JjdXJseCpzZWxmI2p1bWJmPWMycGEuYXNzZXJ0aW9ucy9jMnBhLmFjdGlvbnMudjJkaGFzaFgg8iHizkXXTuuTHr4oXHuGKIKuGqyL/baBBjfIE/hB8T2iY3VybHgpc2VsZiNqdW1iZj1jMnBhLmFzc2VydGlvbnMvYzJwYS5oYXNoLmRhdGFkaGFzaFggrs8cAyyvTqwT7pfxXwGr7c74XhMZNA298UQ+rJXWAb90Y2xhaW1fZ2VuZXJhdG9yX2luZm+jZG5hbWVvQW50aHJvcGljIEZpbGVzZ3ZlcnNpb25lMS4wLjBrc3BlY1ZlcnNpb25lMi40LjAAABA4anVtYgAAAChqdW1kYzJjcwARABCAAACqADibcQNjMnBhLnNpZ25hdHVyZQAAABAIY2JvctKEWQISogEmGCFZAgowggIGMIIBjaADAgECAhRA5aAK7sI50L64g/oGQgU9Z1UTADAKBggqhkjOPQQDAzBJMRcwFQYDVQQKEw5BbnRocm9waWMsIFBCQzEuMCwGA1UEAxMlQW50aHJvcGljIENvbnRlbnQgQ3JlZGVudGlhbHMgUm9vdCBDQTAeFw0yNjA4MDcxODQzNTZaFw0yODA4MDYxOTQzNTZaMEQxFzAVBgNVBAoTDkFudGhyb3BpYywgUEJDMSkwJwYDVQQDEyBBbnRocm9waWMgQ2xhdWRlIENvbnRlbnQgU2lnbmluZzBZMBMGByqGSM49AgEGCCqGSM49AwEHA0IABJh6CmvLUBgFFNU0vUKlOVtE6djd17L5SuwX0LemFisBM3dkd/3cyjxFA3Qo5S46fX0/ihY0VZ7mfb9KF703t5OjWDBWMA4GA1UdDwEB/wQEAwIHgDAVBgNVHSUEDjAMBgorBgEEAYPoXgIBMAwGA1UdEwEB/wQCMAAwHwYDVR0jBBgwFoAUzlHiBIFOZFsj+OPEz5o+nMHXXMIwCgYIKoZIzj0EAwMDZwAwZAIwMXMdFJ4BetLLVY7ORuE9noqbbAZOZn/aArXyTwFAZfKrPzxF2vPoJNf1+UCdg1XGAjBwX1zd9WGqYkqmL5SFqw1QySjr1zJfpJM9+1rdDwSPLMOPOjKuiXjoU/pUUeG9RwmhY3BhZFkNngAAAAAAAAAAAAAAAAAAAAAAAAAAAAAAAAAAAAAAAAAAAAAAAAAAAAAAAAAAAAAAAAAAAAAAAAAAAAAAAAAAAAAAAAAAAAAAAAAAAAAAAAAAAAAAAAAAAAAAAAAAAAAAAAAAAAAAAAAAAAAAAAAAAAAAAAAAAAAAAAAAAAAAAAAAAAAAAAAAAAAAAAAAAAAAAAAAAAAAAAAAAAAAAAAAAAAAAAAAAAAAAAAAAAAAAAAAAAAAAAAAAAAAAAAAAAAAAAAAAAAAAAAAAAAAAAAAAAAAAAAAAAAAAAAAAAAAAAAAAAAAAAAAAAAAAAAAAAAAAAAAAAAAAAAAAAAAAAAAAAAAAAAAAAAAAAAAAAAAAAAAAAAAAAAAAAAAAAAAAAAAAAAAAAAAAAAAAAAAAAAAAAAAAAAAAAAAAAAAAAAAAAAAAAAAAAAAAAAAAAAAAAAAAAAAAAAAAAAAAAAAAAAAAAAAAAAAAAAAAAAAAAAAAAAAAAAAAAAAAAAAAAAAAAAAAAAAAAAAAAAAAAAAAAAAAAAAAAAAAAAAAAAAAAAAAAAAAAAAAAAAAAAAAAAAAAAAAAAAAAAAAAAAAAAAAAAAAAAAAAAAAAAAAAAAAAAAAAAAAAAAAAAAAAAAAAAAAAAAAAAAAAAAAAAAAAAAAAAAAAAAAAAAAAAAAAAAAAAAAAAAAAAAAAAAAAAAAAAAAAAAAAAAAAAAAAAAAAAAAAAAAAAAAAAAAAAAAAAAAAAAAAAAAAAAAAAAAAAAAAAAAAAAAAAAAAAAAAAAAAAAAAAAAAAAAAAAAAAAAAAAAAAAAAAAAAAAAAAAAAAAAAAAAAAAAAAAAAAAAAAAAAAAAAAAAAAAAAAAAAAAAAAAAAAAAAAAAAAAAAAAAAAAAAAAAAAAAAAAAAAAAAAAAAAAAAAAAAAAAAAAAAAAAAAAAAAAAAAAAAAAAAAAAAAAAAAAAAAAAAAAAAAAAAAAAAAAAAAAAAAAAAAAAAAAAAAAAAAAAAAAAAAAAAAAAAAAAAAAAAAAAAAAAAAAAAAAAAAAAAAAAAAAAAAAAAAAAAAAAAAAAAAAAAAAAAAAAAAAAAAAAAAAAAAAAAAAAAAAAAAAAAAAAAAAAAAAAAAAAAAAAAAAAAAAAAAAAAAAAAAAAAAAAAAAAAAAAAAAAAAAAAAAAAAAAAAAAAAAAAAAAAAAAAAAAAAAAAAAAAAAAAAAAAAAAAAAAAAAAAAAAAAAAAAAAAAAAAAAAAAAAAAAAAAAAAAAAAAAAAAAAAAAAAAAAAAAAAAAAAAAAAAAAAAAAAAAAAAAAAAAAAAAAAAAAAAAAAAAAAAAAAAAAAAAAAAAAAAAAAAAAAAAAAAAAAAAAAAAAAAAAAAAAAAAAAAAAAAAAAAAAAAAAAAAAAAAAAAAAAAAAAAAAAAAAAAAAAAAAAAAAAAAAAAAAAAAAAAAAAAAAAAAAAAAAAAAAAAAAAAAAAAAAAAAAAAAAAAAAAAAAAAAAAAAAAAAAAAAAAAAAAAAAAAAAAAAAAAAAAAAAAAAAAAAAAAAAAAAAAAAAAAAAAAAAAAAAAAAAAAAAAAAAAAAAAAAAAAAAAAAAAAAAAAAAAAAAAAAAAAAAAAAAAAAAAAAAAAAAAAAAAAAAAAAAAAAAAAAAAAAAAAAAAAAAAAAAAAAAAAAAAAAAAAAAAAAAAAAAAAAAAAAAAAAAAAAAAAAAAAAAAAAAAAAAAAAAAAAAAAAAAAAAAAAAAAAAAAAAAAAAAAAAAAAAAAAAAAAAAAAAAAAAAAAAAAAAAAAAAAAAAAAAAAAAAAAAAAAAAAAAAAAAAAAAAAAAAAAAAAAAAAAAAAAAAAAAAAAAAAAAAAAAAAAAAAAAAAAAAAAAAAAAAAAAAAAAAAAAAAAAAAAAAAAAAAAAAAAAAAAAAAAAAAAAAAAAAAAAAAAAAAAAAAAAAAAAAAAAAAAAAAAAAAAAAAAAAAAAAAAAAAAAAAAAAAAAAAAAAAAAAAAAAAAAAAAAAAAAAAAAAAAAAAAAAAAAAAAAAAAAAAAAAAAAAAAAAAAAAAAAAAAAAAAAAAAAAAAAAAAAAAAAAAAAAAAAAAAAAAAAAAAAAAAAAAAAAAAAAAAAAAAAAAAAAAAAAAAAAAAAAAAAAAAAAAAAAAAAAAAAAAAAAAAAAAAAAAAAAAAAAAAAAAAAAAAAAAAAAAAAAAAAAAAAAAAAAAAAAAAAAAAAAAAAAAAAAAAAAAAAAAAAAAAAAAAAAAAAAAAAAAAAAAAAAAAAAAAAAAAAAAAAAAAAAAAAAAAAAAAAAAAAAAAAAAAAAAAAAAAAAAAAAAAAAAAAAAAAAAAAAAAAAAAAAAAAAAAAAAAAAAAAAAAAAAAAAAAAAAAAAAAAAAAAAAAAAAAAAAAAAAAAAAAAAAAAAAAAAAAAAAAAAAAAAAAAAAAAAAAAAAAAAAAAAAAAAAAAAAAAAAAAAAAAAAAAAAAAAAAAAAAAAAAAAAAAAAAAAAAAAAAAAAAAAAAAAAAAAAAAAAAAAAAAAAAAAAAAAAAAAAAAAAAAAAAAAAAAAAAAAAAAAAAAAAAAAAAAAAAAAAAAAAAAAAAAAAAAAAAAAAAAAAAAAAAAAAAAAAAAAAAAAAAAAAAAAAAAAAAAAAAAAAAAAAAAAAAAAAAAAAAAAAAAAAAAAAAAAAAAAAAAAAAAAAAAAAAAAAAAAAAAAAAAAAAAAAAAAAAAAAAAAAAAAAAAAAAAAAAAAAAAAAAAAAAAAAAAAAAAAAAAAAAAAAAAAAAAAAAAAAAAAAAAAAAAAAAAAAAAAAAAAAAAAAAAAAAAAAAAAAAAAAAAAAAAAAAAAAAAAAAAAAAAAAAAAAAAAAAAAAAAAAAAAAAAAAAAAAAAAAAAAAAAAAAAAAAAAAAAAAAAAAAAAAAAAAAAAAAAAAAAAAAAAAAAAAAAAAAAAAAAAAAAAAAAAAAAAAAAAAAAAAAAAAAAAAAAAAAAAAAAAAAAAAAAAAAAAAAAAAAAAAAAAAAAAAAAAAAAAAAAAAAAAAAAAAAAAAAAAAAAAAAAAAAAAAAAAAAAAAAAAAAAAAAAAAAAAAAAAAAAAAAAAAAAAAAAAAAAAAAAAAAAAAAAAAAAAAAAAAAAAAAAAAAAAAAAAAAAAAAAAAAAAAAAAAAAAAAAAAAAAAAAAAAAAAAAAAAAAAAAAAAAAAAAAAAAAAAAAAAAAAAAAAAAAAAAAAAAAAAAAAAAAAAAAAAAAAAAAAAAAAAAAAAAAAAAAAAAAAAAAAAAAAAAAAAAAAAAAAAAAAAAAAAAAAAAAAAAAAAAAAAAAAAAAAAAAAAAAAAAAAAAAAAAAAAAAAAAAAAAAAAAAAAAAAAAAAAAAAAAAAAAAAAAAAAAAAAAAAAAAAAAAAAAAAAAAAAAAAAAAAAAAAAAAAAAAAAAAAAAAAAAAAAAAAAAAAAAAAAAAAAAAAAAAAAAAAAAAAAAAAAAAAAAAAAAAAAAAAAAAAAAAAAAAAAAAAAAAAAAAAAAAAAAAAAAAAAAAAAAAAAAAAAAAAAAAAAAAAAAAAAAAAAAAAAAAAAAAAAAAAAAAAAAAAAAAAAAAAAAAAAAAAAAAAAAAAAAAAAAAAAAAAAAAAAAAAAAAAAAAAAAAAAAAAAAAAAAAAAAAAAAAAAAAAAAAAAAAAAAAAAAAAAAAAAAAAAAAAAAAAAAAAAAAAAAAAAAAAAAAAAAAAAAAAAAAAAAAAAAAAAAAAAAAAAAAAAAAAAAAAAAAAAAAAAAAAAAAAAAAAAAAAAAAAAAAAAAAAAAAAAAAAAAAAAAAAAAAAAAAAAAAAAAAAAAAAAAAAAAAAAAAAAAAAAAAAAAAAAAAAAAAAAAAAAAAAAAAAAAAAAAAAAAAAAAAAAAAAAAAAAAAAAAAAAAAAAAAAAAAAAAAAAAAAAAAAAAAAAAAAAAAAAAAAAAAAAAAAAAAAAAAAAAAAAAAAAAAAAAAAAAAAAAAAAAAAAAAAAAAAAAAAAAAAAAAAAAAAAAAAAAAAAAAAAAAAAAAAAAAAAAAAAAAAAAAAAAAAAAAAAAAAAAAAAAAAAAAAAAAAAAAAAAAAAAAAAAAAAAAAAAAAAAAAAAAAAAAAAAAAAAAAAAAAAAAAAAAAAAAAAAAAAAAAAAAAAAAAAAAAAAAAAAAAAAAAAAAAAAAAAAAAAAAAAAAAAAAAAAAAAAAAAAAAAAAAAAAAAAAAAAAAAAAAAAAAAAAAAAAAAAAAAAAAAAAAAAAAAAAAAAAAAAAAAAAAAAAAAAAAAAAAAAAAAAAAAAAAAAAAAAAAAAAAAAAAAAAAAAAAAAAAAAAAAAAAAAAAAAAAAAAAAAAAAAAAAAAAAAAAAAAAAAAAAAAAAAAAAAAAAAAAAAAAAAAAAAAAAAAAAAAAAAAAAAAAAAAAAAAAAAAAAAAAAAAAAAAAAAAAAAAAAAAAAAAAAAAAAAAAAAAAAAAAAAAAAAAAAAAAAAAAAAAAAAAAAAAAAAAAAAAAAAAAAAAAAAAAAAAAAAAAAAAAAAAAAAAAAAAAAAAAAAAAAAAAAAAAAAAAAAAAAAAAAAAAAAAAAAAAAAAAAAAAAAAAAAAAAAAAAAAAAAAAAAAAAAAAAAAAAAAAAAAAAAAAAAAAAAAAAAAAAAAAAAAAAAAAAAAAAAAAAAAAAAAAAAAAAAPZYQNWLWjFiBfCSToGdB48ZzcvDfcCSxvu0Fl9UWelJnz1OlE6ack/kmfG8hvKXU3cwKtPlRhF8f/LCYya+2p4reqw=</c2pa:manifest></metadata>
<mask id="mask0_44_584" style="mask-type:luminance" maskUnits="userSpaceOnUse" x="0" y="0" width="406" height="422">
<path d="M0 0H405.865V422H0V0Z" fill="white"></path>
</mask>
<g mask="url(#mask0_44_584)">
<path d="M252.547 194.349C252.073 192.641 252.073 190.87 252.547 188.891C254.052 182.474 255.901 174.693 256.859 166.573C257.474 161.729 257.953 158.589 258.365 157.156C260.688 149.307 263.01 140.235 265.203 129.995C265.542 128.292 266.156 125.833 266.979 122.698C267.802 119.557 268.349 117.167 268.688 115.328C269.99 107.682 270.604 103.724 270.672 103.453C271.151 101.063 272.177 97.7866 273.615 93.5574C274.094 92.0574 275.047 88.0314 276.417 81.4793C277.51 76.1564 278.401 72.3335 279.083 70.1512C279.766 67.9689 280.859 64.2137 282.365 58.9585C282.984 56.7085 283.87 54.521 284.828 52.5418C286.677 48.8595 287.771 45.448 288.453 41.4897C289.479 35.5522 290.708 29.2085 292.281 22.448C293.24 18.3543 294.198 14.8751 295.292 12.0105C297.276 6.68762 296.797 0.479289 304.594 0.000124074C306.167 -0.0675853 308.01 0.546999 308.557 2.11471C308.833 2.93242 308.354 3.82304 307.531 4.16158C306.849 4.43242 305.688 4.77617 303.979 5.25533C303.292 5.45846 302.745 6.00533 302.542 6.68762C301.651 10.1668 300.76 13.0314 299.943 15.3543C297.615 21.9741 296.042 29.3439 294.745 35.2814C294.266 37.4637 293.995 39.9897 293.651 42.3074C293.307 44.7658 292.146 47.3595 291.396 50.1564C291.255 50.6355 291.12 51.0418 290.849 51.4532C289.203 54.4532 288.25 56.3647 287.974 57.1824C286.13 62.0314 284.484 66.9428 283.052 71.9272C282.162 74.8595 281.547 77.8595 281.135 80.8647C281 81.6147 280.453 82.7085 280.245 83.5939C278.948 88.9168 278.057 92.396 277.578 93.896C275.734 99.5626 274.776 102.495 274.708 102.771C274.365 103.589 273.682 106.662 272.792 111.844C272.177 115.667 271.151 120.104 269.781 125.151C266.844 136.141 264.927 143.578 263.901 147.401C263.698 148.287 263.354 149.583 262.943 151.354C262.672 152.313 262.328 153.61 261.781 155.245C260.073 160.568 259.526 165.62 258.5 171.896C257.745 176.813 256.448 182.339 254.599 188.344C254.26 189.432 254.052 190.458 253.984 191.276C253.849 192.235 253.781 193.188 253.646 194.281C253.573 194.62 253.302 194.828 252.958 194.828C252.823 194.755 252.62 194.62 252.547 194.349ZM287.63 80.1147C289.615 72.8803 291.87 65.7137 293.787 57.9376C296.797 45.8543 298.162 38.3491 301.307 27.9116C302.333 24.4949 303.568 20.0626 305.005 14.672C305.141 14.1928 305.479 13.8543 305.891 13.7137L306.505 13.5105C306.781 13.4428 306.984 13.5782 307.125 13.7814C307.125 13.8543 307.193 13.922 307.125 14.0574C305.552 21.7658 303.771 29.4116 301.787 36.9168C300.693 41.0782 300.214 45.5835 298.917 49.6095C297.276 55.0001 295.568 61.823 293.854 67.146C291.802 73.6303 290.776 76.8387 290.708 76.9064C290.162 78.4741 289.344 79.6355 288.177 80.521C288.042 80.6616 287.771 80.5887 287.703 80.4532C287.63 80.3178 287.63 80.2501 287.63 80.1147ZM86.5053 50.0887C85.7501 52.4741 85.2032 54.797 84.7917 56.9793C83.6303 63.5991 82.2657 70.0835 81.5105 73.698C81.3751 74.2449 81.3751 74.7918 81.3751 75.271C81.4428 77.5887 81.4428 79.2241 81.3751 80.1824C81.3073 81.547 81.8542 82.5001 81.5782 83.797C81.5105 84.073 81.5105 84.547 81.5782 85.2293C81.7865 88.7137 82.1928 91.4428 83.4271 94.3751C83.6303 94.8543 84.2448 95.672 85.2032 96.9689C87.2553 99.6303 89.1042 102.839 90.6042 106.453C90.7448 106.729 91.0157 106.932 91.3594 106.865C101.615 105.906 110.234 111.844 113.245 121.74C113.448 122.354 113.516 122.969 113.516 123.651C113.516 125.766 113.516 127.61 113.583 129.177C113.724 133.271 113.037 137.37 111.943 141.12C111.672 142.005 111.672 142.964 111.943 143.849C113.313 148.151 113.583 152.448 112.766 156.886C111.26 165.208 108.797 172.375 105.516 178.516C102.438 184.182 100.521 188 99.7032 189.979C98.4688 192.985 98.0626 194.964 96.9688 198.781C96.8282 199.261 96.5573 199.672 96.0782 199.943C95.8021 200.151 95.3959 200.078 95.1876 199.807C95.1198 199.74 95.1198 199.604 95.0521 199.537C94.9167 198.578 94.849 197.896 94.9167 197.349C95.2553 190.047 97.3073 183.292 101.208 177.151C102.302 175.448 103.734 172.031 105.651 166.917C106.88 163.641 107.771 159.136 108.385 153.542C108.385 153.474 108.385 153.406 108.385 153.266L107.771 148.287C107.771 148.151 107.635 148.011 107.432 148.011C107.359 148.011 107.292 148.083 107.292 148.083C105.719 149.583 104.078 151.563 102.162 154.016C101.344 155.11 99.4271 155.927 97.5834 156.61C95.0521 157.568 93.2032 158.865 92.1094 160.5C89.6511 164.12 88.4167 165.958 88.349 166.026C88.0782 166.438 87.8021 166.781 87.4584 167.12C83.4271 170.875 82.7396 174.422 81.0313 180.156C80.6928 181.313 80.6198 182.886 80.7605 184.865C80.8282 185.886 81.3073 187.386 82.1251 189.365C84.3855 194.688 86.1615 198.99 89.3751 203.287C89.6511 203.63 89.5782 204.177 89.1719 204.448C89.1042 204.516 89.0313 204.516 88.9636 204.583L88.8282 204.651C88.2136 204.86 87.4584 204.651 87.0521 204.104C85.4792 202.266 84.3855 200.761 83.8386 199.537C81.6459 194.896 79.8021 191.073 78.2292 188C78.0938 187.729 77.9532 187.458 77.8855 187.115C75.8334 179.266 79.2553 169.578 84.0417 163.573C84.5886 162.891 85.8855 160.703 87.9376 157.156C88.2136 156.677 89.5105 155.386 91.9063 153.198C91.974 153.13 92.0417 153.063 92.1094 153.063L97.7865 149.448C98.0626 149.307 98.2657 149.104 98.4011 148.833C99.6355 147.057 101.141 145.281 102.984 143.511C103.396 143.099 103.734 142.485 104.214 141.667C104.354 141.396 104.354 141.052 104.287 140.714C102.984 137.026 100.042 134.026 98.1303 130.271C97.0365 128.089 94.6407 123.583 92.5886 120.787C90.4011 117.849 88.4167 114.781 86.573 111.641C86.1615 110.958 85.5469 110.547 84.7917 110.412C82.0573 110.073 79.4584 109.391 76.9948 108.432C74.6719 107.547 73.5782 106.865 72.2084 104.953C70.0886 102.089 68.1771 101.266 64.8907 99.2189C63.3855 98.2657 62.0886 96.7657 60.9271 94.5782C58.7396 90.5522 57.9167 86.3907 58.3959 81.9585C58.6667 79.5678 58.7396 77.4532 59.2188 75.198C60.2396 70.1512 61.1303 65.7814 61.8855 62.0991C62.5678 58.7553 62.9115 56.4324 64.6876 54.2501C64.823 54.047 65.099 54.047 65.2344 54.1824C65.3698 54.2501 65.4376 54.4532 65.3698 54.5939C64.073 60.2553 62.9115 66.1928 61.8855 72.4012C60.5834 80.1147 58.8073 90.6251 65.4376 96.698C66.6719 97.7866 68.3803 98.6043 70.1563 99.5626C72.1407 100.583 73.7136 102.495 75.1511 104.474C75.6303 105.156 76.3803 105.636 77.2709 105.839L83.5626 107.344C83.698 107.412 83.9063 107.271 83.9063 107.136C83.9063 107.068 83.9063 107 83.9063 106.932C82.4011 103.656 80.6198 100.583 78.6407 97.7189C78.4323 97.448 78.2969 97.172 78.1615 96.8335C77.474 94.922 77.1355 92.9428 77.0678 90.8282C76.9271 85.573 77.2032 80.2501 77.8855 74.7918C78.1615 72.7449 79.1876 68.9897 80.0053 66.5314C81.1667 62.8491 82.1251 59.0939 82.8803 55.2032C83.2865 53.021 84.1771 50.4272 86.2292 49.7449C86.3646 49.6772 86.5053 49.7449 86.573 49.8855C86.573 50.021 86.573 50.021 86.5053 50.0887ZM94.6407 110.823C94.5053 110.891 94.4376 111.026 94.5053 111.094V111.162C96.4219 113.958 98.7448 117.917 101.547 122.969C102.37 124.469 103.12 125.901 103.667 127.266C104.354 128.906 105.448 130.542 106.813 132.182C106.88 132.25 107.021 132.318 107.156 132.182C107.224 132.182 107.224 132.115 107.224 132.047C107.224 131.974 107.156 131.432 107.021 130.271C106.953 129.927 107.021 129.245 107.156 128.156C107.771 123.516 106.609 117.302 102.505 114.438C100.25 112.87 97.8542 111.641 95.2553 110.755C95.0521 110.755 94.849 110.755 94.6407 110.823ZM252.823 211.886C252.823 211.953 252.891 211.953 252.958 211.953C253.026 211.953 253.026 211.886 253.026 211.886C253.646 209.36 253.646 206.766 255.219 204.38C256.24 202.88 256.792 201.787 256.927 201.104C257.609 198.511 257.339 196.396 258.089 194.005C258.635 192.438 259.115 190.391 259.662 187.797C259.938 186.365 260.755 184.797 261.167 183.156C262.531 177.766 263.151 173.328 264.792 168.552C266.5 163.573 268.417 157.36 270.672 149.922C272.042 145.349 272.521 140.37 274.365 135.594C276.76 129.177 278.266 122.969 280.385 116.693C281.885 112.12 283.391 106.453 284.76 99.7658C285.172 97.7866 285.443 96.1512 285.578 95.0574C285.854 92.0574 285.854 88.9168 288.724 87.823C288.865 87.7553 289.068 87.823 289.135 88.0314C289.135 88.0991 289.135 88.1668 289.135 88.3022C289.068 88.4376 289.068 88.5053 289 88.5053C288.797 88.8491 288.656 89.1876 288.656 89.5991C288.453 92.1251 288.521 94.6512 288.177 97.1043C287.359 103.11 286.057 109.115 284.281 115.12C281.615 124.266 279.219 132.318 277.099 139.141C276.141 142.349 275.526 146.99 274.641 150.604C272.859 157.839 271.698 161.526 269.99 168.078C267.938 175.719 267.662 185.547 265.474 191.552C265.13 192.438 264.927 193.391 264.859 194.281C264.583 197.349 264.38 200.422 263.698 203.63C263.557 204.313 263.01 205.474 262.125 207.042C260.073 210.521 259.729 215.573 259.047 218.37C258.912 218.917 258.703 219.458 258.432 219.938C257.13 221.985 254.807 225.74 253.984 228.604C252.344 233.927 250.974 239.318 249.88 244.708C249.813 244.917 249.948 245.052 250.156 245.12H250.224L259.662 244.573C259.797 244.573 259.938 244.573 260.073 244.641C261.917 245.323 263.901 245.599 266.021 245.458C269.578 245.188 273.474 245.188 275.594 245.938C278.193 246.823 280.453 247.235 282.365 247.167C285.307 247.031 287.563 247.031 289.135 247.031C289.412 247.031 289.682 246.964 290.026 246.896C291.396 246.552 292.349 246.417 292.969 246.417C297.547 246.823 301.307 246.964 304.318 246.688C305.479 246.688 306.714 246.823 307.875 246.964L336.12 251.464C336.323 251.464 336.531 251.531 336.734 251.604C341.589 253.172 346.651 254.604 351.917 256.037C353.078 256.38 354.927 257.13 357.385 258.495C361.219 260.542 364.844 262.386 368.26 263.953C369.151 264.365 370.245 265.25 371.682 266.615C372.021 266.958 372.297 267.365 372.432 267.844C372.708 268.729 373.458 270.708 374.552 273.714C375.099 275.281 374.828 276.714 373.594 278.011C371.547 280.266 369.974 282.651 368.74 285.245C367.234 288.521 366.208 290.5 365.729 291.182C362.037 296.708 356.979 299.438 351.167 302.99C350.755 303.261 350.344 303.531 350 303.875C346.719 307.016 342.479 310.083 337.964 311.38C332.151 313.156 326.615 315.406 320.594 317.115C320.115 317.25 319.568 317.047 319.432 316.636C319.432 316.568 319.432 316.568 319.432 316.5C319.297 315.406 319.979 314.724 321.005 314.245C324.354 312.677 327.776 311.11 331.266 309.537C331.948 309.198 333.724 308.583 336.599 307.698C339.198 306.875 341.521 305.578 343.573 303.807C346.787 301.078 349.865 298.964 352.807 297.458C356.089 295.755 359.37 293.568 361.219 291.662C364.297 288.521 366.141 283.813 368.125 280.266C368.26 279.99 368.328 279.719 368.26 279.443C367.99 278.354 368.26 277.261 369.016 276.167C369.287 275.761 369.354 275.214 369.151 274.735L367.714 271.599C367.375 270.844 366.755 270.162 365.938 269.823C361.49 267.776 357.797 266 354.995 264.5C350.891 262.318 346.854 261.36 342.755 260.474C341.932 260.271 341.109 260.063 340.292 259.724C337.281 258.427 334.135 257.537 330.854 256.995C327.776 256.516 325.38 256.037 323.807 255.63C319.912 254.604 317.792 253.719 314.51 253.307C311.844 252.969 309.245 252.354 306.917 251.396C306.646 251.261 306.302 251.193 305.958 251.193L293.719 250.307C292.422 250.24 291.12 250.24 289.823 250.307C286.333 250.781 282.505 250.307 279.427 250.646C275.12 251.125 271.083 250.99 267.047 251.396C264.516 251.672 262.464 251.328 260.823 250.307C260.412 250.099 260.005 249.964 259.526 249.896L255.146 249.761C255.01 249.761 254.875 249.761 254.807 249.693C253.234 249.281 251.453 249.146 249.474 249.349C249.266 249.349 249.063 249.557 248.995 249.761C248.448 252.422 247.901 255.63 246.875 258.151C246.328 259.516 245.984 260.745 245.781 261.906C245.573 263.203 245.162 265.594 244.547 269.141C243.932 272.552 242.156 276.235 241.745 279.24C241.537 280.604 240.443 281.698 240.307 283.063C240.104 284.974 238.734 286.542 237.984 288.318C237.917 288.453 237.984 288.589 238.12 288.656C238.12 288.656 238.12 288.656 238.188 288.656L242.359 289.542C243.729 289.818 244.823 290.703 245.37 292L245.505 292.276C245.781 292.886 245.438 293.641 244.823 293.912C244.615 293.979 244.412 294.047 244.208 293.979C240.443 293.365 236.412 293.432 232.172 294.182C230.052 294.526 226.287 293.365 227.656 290.365C227.792 290.089 228 289.886 228.339 289.818L230.87 289.136C231.76 288.86 232.443 288.245 232.719 287.36C232.99 286.542 233.88 283.677 235.385 278.896C235.724 277.875 235.932 276.781 236.068 275.552C236.068 275.417 236 275.281 235.792 275.214C235.792 275.214 235.792 275.214 235.724 275.214C233.745 275.214 231.625 275.417 229.432 275.761C228.068 275.964 226.219 275.896 225.125 275.552C224.646 275.417 224.375 275.011 224.443 274.531C224.922 270.505 234.219 270.708 237.094 271.12C237.438 271.188 237.776 270.917 237.776 270.573C238.464 266.479 238.802 264.297 238.802 263.953C238.87 262.521 239.281 260.953 240.037 259.11C241.063 256.651 241.88 253.375 242.495 249.281C242.563 248.875 242.292 248.464 241.88 248.396C241.745 248.396 241.677 248.396 241.537 248.396C239.078 249.146 236.958 249.693 235.245 250.099C234.771 250.24 234.083 250.099 233.057 249.828C232.646 249.693 232.24 249.693 231.828 249.761C229.573 250.099 228.339 250.307 228.068 250.443C224.031 252.422 219.859 253.651 215.417 253.99C214.87 254.057 214.323 254.125 213.771 254.266C211.313 254.948 208.099 255.766 204.13 256.719C202.146 257.198 196.88 258.292 194.969 256.854C194.693 256.651 194.625 256.313 194.828 256.037C194.896 255.969 194.969 255.901 195.037 255.901L195.922 255.422C196.13 255.287 196.333 255.219 196.609 255.219C199.688 254.74 201.734 254.537 204.953 253.719C209.125 252.625 211.792 251.875 213.021 251.531C214.729 250.99 216.099 251.057 217.807 250.714C218.219 250.646 218.698 250.511 219.042 250.307C222.734 248.531 228.271 246.485 231.828 246.281C234.292 246.141 235.792 245.938 236.271 245.735C238.667 244.708 240.99 244.235 243.042 244.438C243.25 244.438 243.453 244.302 243.521 244.094C244 241.979 244.344 240.615 244.547 239.932C246.255 235.292 247.146 232.906 247.214 232.698C248.516 229.563 249.333 225.261 250.703 221.849C251.047 221.031 250.906 220.141 250.427 219.458C248.375 216.594 249.063 213.318 248.172 209.974C247.693 208.203 247.625 206.224 247.828 204.104C247.901 203.495 248.448 203.016 249.13 203.016C249.677 203.016 250.021 203.219 250.156 203.63C251.047 206.36 251.932 208.953 252.823 211.886ZM103.807 201.719C103.188 201.307 102.781 200.693 102.641 199.943C101.344 192.849 104.76 189.229 109.688 184.115C109.891 183.906 110.099 183.636 110.234 183.36C112.219 179.745 115.844 177.563 119.807 176.13C120.49 175.854 121.109 175.448 121.589 174.901C123.432 172.646 125.141 169.781 125.828 166.438C126.854 161.594 127.125 156.953 126.167 152.037C125.208 147.401 124.734 144.943 124.594 144.599C123.979 142.828 123.776 141.396 123.844 140.37C123.844 140.235 123.912 140.099 123.979 140.099C124.323 139.823 124.87 139.958 125.073 140.302C125.964 141.667 126.646 143.235 127.125 145.011C128.63 150.604 129.453 154.427 129.792 156.474C130 157.771 130.068 159.953 130 162.958C129.927 168.485 128.151 173.537 124.458 177.495C121.927 180.224 117.417 180.36 114.474 182.677C114.339 182.818 114.13 182.953 113.995 183.156C111.807 185.886 110.026 187.932 108.729 189.162C106.266 191.485 104.901 194.146 104.76 196.875C104.557 199.875 104.49 201.375 104.422 201.516C104.214 201.787 104.01 201.854 103.807 201.719ZM7.10422 322.438C6.07818 325.985 5.59901 328.985 5.66672 331.443C5.73443 334.307 5.87505 336.833 6.07818 338.948C6.42193 342.432 6.14589 345.365 6.76047 348.708C7.10422 350.62 6.69276 352.802 7.10422 354.646C7.17193 354.917 7.17193 355.261 7.17193 355.531C6.83338 358.125 7.30734 361.13 8.67713 364.677C9.08859 365.698 9.22401 366.995 9.02088 368.568C9.02088 368.839 8.81255 369.042 8.54172 369.115C7.58338 369.386 6.83338 369.318 6.35422 368.839C4.36984 367.068 2.79693 364.474 1.56776 361.13C1.42713 360.787 1.35943 360.375 1.29172 359.969L0.812551 354.167C0.812551 354.099 0.812551 354.099 0.812551 354.031C1.01567 352.464 1.01568 351.167 0.744842 350.141C0.0625517 347.276 0.609426 343.656 0.401092 341.203C0.062551 337.516 0.468801 334.719 0.197967 331.443C0.130259 331.037 0.197968 330.625 0.265676 330.214C1.1563 326.12 2.11463 322.844 3.14068 320.526C3.3438 320.047 4.0938 319.229 5.26047 318.203C7.78651 315.953 8.06255 310.083 9.77088 307.698C12.099 304.557 13.3282 302.781 13.5313 302.511C14.4219 301.146 15.2448 298.891 16.3386 297.458C18.8698 294.115 22.2865 291.662 26.5938 290.297C28.8542 289.542 31.1771 289.203 33.7761 288.245C39.724 285.927 42.3907 285.177 46.974 282.516C50.8751 280.193 55.7292 278.287 61.6094 276.714C61.7448 276.714 61.8126 276.646 61.8855 276.578L69.1303 271.667C69.5417 271.391 70.0209 271.12 70.5678 270.985L74.8073 269.823C75.2865 269.688 75.698 269.276 75.698 268.729C75.974 265.662 76.3803 263.203 76.8594 261.36C78.3646 255.698 78.6407 247.917 80.4844 241.912C81.5105 238.636 81.7136 236.11 82.4011 232.427C83.6303 225.261 86.7084 218.438 91.5626 211.953C92.2501 211 93.1355 210.318 94.0938 209.839C96.4219 208.677 101.479 213.526 101.755 215.776C102.234 220.214 103.396 224.578 105.24 228.672C106.198 230.787 106.333 235.839 106.406 239.115C106.474 242.594 108.115 246.349 108.729 249.964C109.62 254.74 110.438 258.906 111.193 262.453C111.328 263 111.875 263.339 112.422 263.271C112.49 263.271 112.49 263.271 112.557 263.203C115.365 262.177 118.099 261.021 120.901 259.724C122.406 259.042 123.844 258.36 125.141 257.677C127.807 256.38 130.615 255.422 133.552 254.948C133.76 254.875 133.964 254.74 134.031 254.469C134.646 251.125 135.125 248.261 135.401 245.802C135.88 241.094 137.245 237.474 137.792 232.974C138.271 229.083 139.365 225.672 139.708 221.917C140.323 215.776 141.693 209.771 143.745 203.833C144.495 201.787 144.703 200.354 145.109 198.443C145.25 197.896 145.453 197.281 145.729 196.807C147.302 193.938 149.281 190.802 152.5 189.432C153.594 188.958 154.62 189.026 155.438 189.505C157.354 190.662 158.927 192.37 160.224 194.552C161.047 195.985 161.385 197.557 161.865 199.193C162.208 200.151 162.412 201.104 162.552 202.057C163.031 205.333 163.578 208.61 164.26 211.886C164.604 213.594 164.672 215.229 164.531 216.87C164.464 217.344 164.057 217.688 163.578 217.688C163.302 217.688 163.099 217.552 162.958 217.344C162.141 216.255 161.318 214.958 161.047 213.526C160.635 211.339 159.813 209.5 159.266 206.839C158.583 203.63 157.766 200.833 156.807 198.375C156.193 196.875 155.167 195.578 153.797 194.485C153.662 194.417 153.521 194.417 153.385 194.485C151.542 196.052 150.448 197.964 150.037 200.078C149.76 201.516 149.422 202.813 149.078 203.901C146.891 210.589 145.656 214.891 145.25 221.031C144.974 225.328 143.333 231.542 142.854 235.224C142.651 237 142.172 239.25 141.349 241.979C141.01 243.073 140.667 245.323 140.255 248.802C139.984 250.922 139.094 256.104 137.521 264.432C137.109 266.682 136.427 268.938 135.604 271.188C133.417 276.99 132.188 285.177 131.365 289.474C130.682 292.958 130.75 296.641 130.818 300.396C130.818 300.599 130.953 300.802 131.162 300.938C133.76 302.375 136.083 303.74 139.776 304.214C144.771 304.828 149.76 305.787 153.729 308.583C154.276 308.922 154.479 309.745 154.276 310.969C154.208 311.177 154.141 311.448 153.932 311.583C152.568 312.677 151.13 312.948 149.557 312.406C145.453 310.901 141.281 309.948 137.245 309.537C134.307 309.266 131.776 307.219 128.698 305.037C128.151 304.693 127.807 304.078 127.807 303.396L127.469 292.136C127.469 291.932 127.469 291.797 127.537 291.589L130 275.349C130 275.214 129.927 275.078 129.792 275.078H129.724C126.031 275.485 122.75 275.964 119.74 276.511C118.234 276.781 116.458 276.922 114.271 276.849C114.063 276.849 113.927 276.99 113.927 277.193C113.927 277.261 113.927 277.261 113.927 277.328L117.417 286.271C117.484 286.406 117.484 286.474 117.484 286.61C118.51 291.662 119.74 298.141 121.38 304.214C123.021 310.427 122.406 316.568 119.537 322.573C117.688 326.396 114.406 326.667 111.193 328.917C109.552 330.078 107.432 331.172 104.833 332.261C102.094 333.422 100.589 333.625 97.5834 333.422C94.2969 333.219 91.6303 333.151 89.5105 333.287C88.8959 333.354 88.2813 333.083 87.7344 332.537C87.5313 332.328 87.5313 332.057 87.7344 331.854C87.8021 331.787 87.8698 331.719 87.9376 331.719C90.8803 330.896 93.823 330.625 96.7605 330.828C100.453 331.104 106.266 327.62 108.932 325.641C111.052 324.073 113.583 323.255 115.089 321.344C115.297 321.073 115.5 320.729 115.635 320.391C116.662 317.115 117.005 313.563 116.797 309.745C116.594 306.875 115.089 303.464 114.609 300.531C113.245 292.958 112.422 287.906 109.755 282.448C109.552 282.037 109.412 281.557 109.344 281.083C109.005 278.969 108.453 277.057 108.182 274.667C107.771 270.302 107.359 267.432 106.953 266.068C105.651 261.36 104.76 257.537 104.287 254.74C104.01 252.969 103.531 250.781 102.849 248.12C102.094 245.12 101.688 242.938 101.615 241.5C101.412 236.521 101.412 233.589 100.662 230.245C100.589 229.901 100.453 229.563 100.25 229.287C98.7448 226.625 97.7188 223.146 97.1719 218.917C97.0365 217.688 96.349 216.594 95.1198 215.708C94.9844 215.573 94.7761 215.641 94.573 215.776L90.4688 219.735C90.4011 219.802 90.4011 219.802 90.3334 219.87C89.8542 220.823 89.5105 221.646 89.3073 222.193C88.0782 225.875 87.1198 229.49 86.2969 233.042C86.1615 233.589 86.3646 234.13 86.8438 234.542C89.5105 236.792 92.8646 236.386 94.6407 238.636C94.7761 238.771 94.7761 239.047 94.7084 239.25C94.3698 240 93.6823 240.276 92.7969 240.136C90.2657 239.797 88.0053 239.182 86.0261 238.297C85.8855 238.229 85.6823 238.297 85.6146 238.432C85.6146 238.5 85.6146 238.5 85.6146 238.568C85.4115 241.776 83.5626 247.646 83.4948 251.328C83.3594 257.401 81.8542 262.792 81.3073 268.797C81.0313 271.458 80.5521 274.396 79.8698 277.464C78.7761 282.172 77.9532 286.13 77.474 289.406C77.474 289.474 77.4063 289.615 77.4063 289.682L75.8334 293.432C75.7657 293.568 75.7657 293.641 75.7657 293.776C75.0157 297.667 73.9219 302.781 72.4844 309.198C72.073 311.11 72.4844 313.495 72.4167 315.203C72.2084 319.026 71.8698 322.641 71.323 326.12C71.2501 326.464 71.3907 326.87 71.6615 327.078C72.9636 328.167 74.3282 329.057 75.698 329.74C76.6563 330.214 76.9948 330.964 76.6563 331.854C76.448 332.469 75.7657 332.807 75.1511 332.672C72.6198 332.125 70.7032 331.646 69.4063 331.24C66.9428 330.422 65.849 327.078 65.9844 324.62C66.2605 319.912 66.2605 316.636 66.1251 314.927C65.849 312.198 65.7813 310.427 65.849 309.604C65.9844 308.651 66.8751 304.354 68.448 296.641C68.8594 294.526 69.6094 292.344 70.7032 290.224C70.7761 290.089 70.7032 289.953 70.5678 289.886C70.5001 289.886 70.4323 289.818 70.3646 289.886L61.198 293.162C60.7917 293.297 60.3803 293.5 59.9688 293.776C57.0261 295.547 55.1146 296.438 52.7188 298.485C51.0782 299.917 49.2292 301.417 47.2501 302.99C43.2136 306.193 41.6407 309.266 40.1355 313.906C40.0678 314.177 40.0678 314.521 40.1355 314.792C40.6823 316.771 41.5053 320.25 43.8282 321.276C49.7813 323.938 54.0886 327.417 58.9428 330.896C59.2188 331.104 59.5573 331.24 59.8334 331.307C60.6511 331.511 62.3646 332.328 65.099 333.766C67.3542 334.99 70.9115 336.219 75.7657 337.516C76.2448 337.651 76.724 337.724 77.2032 337.724C81.5782 337.792 85.8855 338.61 90.0573 340.042C94.6407 341.677 98.6094 342.771 103.396 344.547C106.813 345.844 108.797 346.865 112.557 347.615C116.047 348.297 118.849 348.912 120.901 349.458C121.589 349.662 122.271 349.735 122.885 349.662C123.708 349.594 127.193 349.662 133.349 349.735C133.828 349.735 135.469 350.073 138.412 350.755C138.479 350.755 138.479 350.755 138.547 350.755H141.214C141.625 350.755 142.037 350.755 142.443 350.823C146.479 351.438 149.281 351.849 150.787 352.052C153.594 352.531 156.052 352.667 158.172 352.396C160.771 352.052 163.031 351.573 164.875 350.958C165.287 350.823 165.766 350.755 166.177 350.755C166.516 350.755 170.755 350.417 178.76 349.735C180.672 349.594 183 348.708 185.12 348.365C188.948 347.755 191.068 347.547 194.281 346.865C196.198 346.458 197.839 346.662 199.755 346.182C201.667 345.703 203.516 345.432 205.156 345.297C205.703 345.297 206.318 345.162 206.865 344.953C209.125 344.203 211.516 343.656 213.979 343.386C214.938 343.25 216.51 342.636 217.26 342.568C223.141 341.953 228.339 340.656 234.359 338.813C237.912 337.724 240.583 337.042 242.292 336.698C246.943 335.88 250.906 334.037 255.766 332.604C257.266 332.193 259.385 331.719 262.26 331.307C266.776 330.557 271.083 329.396 275.047 327.828C275.802 327.552 276.552 327.349 277.375 327.214C282.776 326.396 288.724 325.167 294.198 323.12C297.615 321.823 300.214 321.276 303.906 320.932C306.917 320.662 309.724 319.776 312.458 319.229C312.797 319.162 313.141 319.365 313.208 319.708C313.276 319.912 313.208 320.115 313.005 320.318C311.912 321.276 310.609 321.958 309.172 322.297C305.005 323.391 299.943 324.349 295.495 326.531C291.464 328.511 285.922 329.943 281.682 330.761C279.833 331.104 277.375 331.922 274.229 333.011C269.51 334.719 265.13 336.016 261.167 336.698C256.927 337.448 253.984 338.88 249.198 340.521C247.01 341.271 244.479 342.021 241.537 342.771C237.297 343.865 234.698 344.615 233.88 344.953C228.547 347 224.307 348.026 221.162 348.026C221.021 348.026 220.203 348.229 218.833 348.708C217.943 349.052 217.125 349.255 216.51 349.323C213.771 349.735 208.984 351.099 205.156 351.505C203.583 351.714 202.354 351.985 201.464 352.323C200.984 352.531 200.438 352.667 199.823 352.667C198.589 352.667 197.495 352.802 196.469 352.938C192.026 353.688 186.693 354.714 180.537 356.011C179.443 356.214 175.542 356.693 168.776 357.443C167.677 357.578 166.656 357.787 165.833 357.99C164.531 358.401 163.234 358.193 161.865 358.469C158.651 359.151 155.646 359.422 152.771 359.422C152.224 359.422 150.375 359.083 147.37 358.537C146.958 358.469 146.615 358.401 146.208 358.401C144.224 358.261 142.854 358.125 142.172 357.854C141.693 357.719 141.214 357.646 140.734 357.646C139.229 357.787 137.318 357.646 134.922 357.307C129.589 356.422 125.141 357.031 119.875 356.146C114.406 355.193 110.099 354.167 106.953 353.078C100.318 350.755 94.7084 348.844 90.0573 347.344C87.0521 346.318 84.0417 345.912 81.5105 345.229C79.8021 344.75 77.1355 344.682 75.8334 344.682C73.9219 344.615 71.7292 343.25 69.6771 343.25C69.5417 343.25 69.4063 343.25 69.2709 343.182L62.7709 340.792C62.7032 340.792 62.6355 340.724 62.5678 340.724C59.6928 339.156 57.7136 338.063 56.6876 337.583C50.599 334.787 46.0834 329.396 39.8646 327.011C39.5209 326.87 39.2448 326.667 38.974 326.396C35.8282 323.12 34.5261 317.662 34.9376 313.427C35.2136 310.766 37.4011 307.833 38.974 305.104C40.0001 303.261 42.1198 301.349 44.3751 299.781C47.7969 297.458 50.599 295.412 52.7865 293.708C53.1303 293.432 53.5417 293.162 53.948 293.026C55.2501 292.479 56.4115 291.729 57.4376 290.906C57.849 290.568 58.2605 290.365 58.7396 290.156L64.1407 288.318C64.4844 288.177 64.7553 288.042 65.0313 287.906C67.5573 286.339 69.8178 285.245 71.8021 284.63C72.0053 284.563 72.2084 284.36 72.2761 284.151C73.099 280.948 73.3751 277.672 74.5365 274.802C74.6042 274.667 74.5365 274.531 74.3959 274.464C74.3282 274.464 74.3282 274.464 74.2605 274.464C71.8698 274.735 69.474 275.896 67.0105 278.011C65.2344 279.511 62.9115 280.672 59.9688 281.49C54.5678 282.995 49.7084 285.245 45.4011 288.177C45.3334 288.245 45.198 288.318 45.0626 288.386L33.9115 293.094C33.573 293.229 33.1615 293.365 32.8178 293.432C28.1667 294.458 22.1511 297.052 20.1667 301.485C19.4167 303.125 18.6615 304.828 17.9115 306.469C17.7032 306.943 17.4323 307.354 17.0886 307.766C15.9271 309.198 15.2448 310.36 15.1042 311.11C14.8334 312.339 14.5573 314.724 14.2188 318.203C14.0105 320.323 14.7657 322.094 16.3386 323.458C20.2344 326.735 23.3803 329.74 25.7084 332.401C29.5365 336.833 31.6563 339.292 32.0678 339.703C33.0261 340.724 34.599 341.75 36.6459 342.771C40.8907 344.818 43.8959 346.391 45.6094 347.412C50.1876 350.208 56.0001 351.37 60.9271 351.917C62.0886 352.052 65.3021 352.802 70.4323 354.302C75.2865 355.667 78.9792 355.943 84.1771 356.625C86.9844 356.964 91.974 359.151 95.8698 359.901C97.7188 360.307 99.4271 360.787 101.344 360.99C105.172 361.469 107.771 362.287 111.464 362.63C113.38 362.833 117.141 363.86 118.714 364.266C121.245 364.948 126.443 366.724 127.807 369.318C128.083 369.865 127.88 370.615 127.328 370.886C127.26 370.886 127.26 370.953 127.193 370.953C126.443 371.229 125.62 371.162 124.802 370.75C121.927 369.318 118.849 368.292 115.703 367.75C111.193 366.995 106.198 366.11 101.412 365.698C97.0365 365.36 93.0678 364.333 88.2813 362.766C85.9584 362.016 83.4948 361.537 80.8282 361.333C75.4948 360.922 71.1146 360.719 66.3282 358.875C65.7813 358.672 65.2344 358.537 64.6876 358.469C60.8594 357.922 57.4376 357.375 54.4271 356.896C51.9011 356.49 49.9167 355.807 47.2501 355.193C46.7032 355.057 46.224 354.917 45.7448 354.714C43.8959 353.896 42.8698 353.417 42.6667 353.349C38.698 351.302 34.7344 349.255 30.698 347.208C26.323 345.026 24.5417 342.089 20.849 337.177C20.5782 336.833 20.3021 336.495 19.9636 336.219C18.1823 334.719 16.8855 332.672 15.1719 331.307C12.7813 329.396 11.073 327.896 9.97922 326.87C9.9063 326.87 9.9063 326.802 9.9063 326.735L7.65109 322.979C7.58338 322.912 7.51568 322.844 7.38026 322.912C7.10422 322.37 7.10422 322.438 7.10422 322.438ZM113.516 274.052L118.37 272.891C118.443 272.891 118.443 272.891 118.51 272.823L127.125 270.094C127.469 270.026 127.807 269.958 128.151 269.958L130.615 269.891C130.885 269.891 131.162 269.688 131.229 269.412L133.417 258.766C133.417 258.63 133.349 258.495 133.214 258.495C133.146 258.495 133.146 258.495 133.073 258.495L126.99 260.474C126.781 260.542 126.646 260.61 126.51 260.745C125.964 261.156 125.484 261.427 124.938 261.636C120.083 263.75 115.912 265.318 112.557 266.344C112.287 266.412 112.078 266.682 112.151 267.026L113.172 273.781C113.172 273.985 113.313 274.12 113.516 274.052ZM187.307 247.505C187.51 248.052 187.854 248.396 187.922 249.078C188.266 251.943 188.333 254.537 188.266 256.719C188.198 257.745 187.719 258.833 186.828 259.927C186.693 260.13 186.417 260.13 186.281 259.995C184.162 258.151 184.026 255.016 183.135 250.849C182.656 248.531 179.646 247.646 178.349 249.761C177.87 250.511 176.5 253.443 174.177 258.427C173.016 260.953 172.057 263.818 171.302 267.094C169.182 276.167 167.609 282.172 166.724 284.974C165.833 287.839 165.219 290.224 164.943 292.203C164.328 296.505 163.51 300.328 162.552 303.672C161.797 306.193 161.526 308.854 161.729 311.724C161.729 312.063 161.729 312.474 161.662 312.813C160.839 316.839 160.156 319.708 159.609 321.276C158.651 323.938 158.104 326.328 157.969 328.235C157.969 328.443 157.557 331.104 156.74 336.287C156.667 336.766 156.875 337.245 157.354 337.516C160.5 339.292 163.984 340.589 167.677 341.474C168.021 341.542 168.229 341.886 168.156 342.224C168.156 342.365 168.089 342.5 167.953 342.568C165.422 344.886 157.557 341.406 154.891 340.177C154.276 339.906 153.729 339.36 153.521 338.745C153.047 337.448 152.839 336.151 152.974 334.854C153.318 331.787 153.594 328.917 153.797 326.255C153.932 324.958 154.141 323.735 154.479 322.438C155.781 317.932 156.807 313.63 157.146 308.104C157.354 305.511 157.833 303.057 158.583 300.735C159.953 296.776 160.156 294.182 160.979 290.636C161.938 286.13 164.74 281.49 165.901 276.646C166.656 273.646 167.953 270.026 168.635 265.932C168.979 263.542 169.526 261.156 170.349 258.766C170.417 258.563 170.349 258.36 170.276 258.224C168.776 256.172 169.047 253.854 168.844 250.24C168.776 248.802 168.229 246.349 167.203 242.87C166.516 240.682 166.245 237.474 166.245 233.38C166.245 232.766 166.516 232.224 166.995 231.88C167.271 231.677 167.609 231.745 167.818 232.016C167.885 232.083 167.885 232.151 167.953 232.292C168.156 233.38 168.365 235.089 168.568 237.474C168.844 240.75 169.662 243.688 170.552 246.349C170.62 246.552 170.755 246.62 170.964 246.62L174.792 246.073C175.068 246.005 175.339 245.87 175.474 245.667L176.979 243.755C177.047 243.688 177.12 243.62 177.188 243.552C179.443 241.912 182.859 243.073 184.912 244.641C185.188 244.844 185.599 244.985 185.938 244.985C187.787 244.917 189.495 244.438 191.135 243.479C191.344 243.344 191.479 243.208 191.479 242.938C191.547 242.047 192.162 241.5 193.188 241.365C197.359 240.818 201.531 240.276 205.568 239.729C207.958 239.453 211.995 238.365 217.672 236.589C218.833 236.25 220.271 235.839 221.568 235.771C225.125 235.636 229.026 235.224 233.198 234.542C233.333 234.542 233.401 234.542 233.537 234.542L242.703 234.953C243.042 234.953 243.25 235.224 243.25 235.568C243.25 235.771 243.182 235.906 242.974 235.974C240.24 237.75 236.412 237.75 232.578 238.156C232.099 238.229 231.693 238.365 231.214 238.568C229.641 239.453 228.203 240 226.974 240.208C222.662 241.094 217.26 241.912 210.833 242.662C210.625 242.662 210.287 242.797 209.74 242.938C209.328 243.073 208.917 243.141 208.578 243.208C204.406 243.688 200.641 244.235 197.292 244.708C193.667 245.255 191 245.938 189.292 246.823C189.083 246.964 188.813 247.031 188.537 246.964H187.719C187.51 246.964 187.375 247.099 187.375 247.302C187.307 247.37 187.307 247.438 187.307 247.505ZM172.948 249.557L171.849 249.485C171.714 249.485 171.646 249.557 171.646 249.693V249.828C171.51 251.672 171.646 253.172 172.057 253.24H172.125C172.537 253.307 173.016 251.807 173.151 249.964V249.828C173.151 249.693 173.016 249.557 172.948 249.557ZM398.625 284.016C398.557 283.948 398.422 283.88 398.354 283.948L398.287 284.016C397.531 285.995 396.234 287.906 394.385 289.682C393.771 290.297 392.677 290.906 391.24 291.453C389.12 292.276 387.203 293.844 385.495 296.094C385.359 296.302 385.224 296.505 385.151 296.708C384.333 298.62 383.443 300.188 382.557 301.552C381.323 303.464 383.578 305.172 381.531 306.875C380.365 307.833 379.203 308.313 377.766 309.537C373.667 313.021 370.313 315.61 367.781 317.25C357.115 324.005 348.568 329.464 337.896 333.625C333.656 335.266 329.417 336.969 325.245 338.61C317.927 341.542 309.927 343.656 302.333 346.662C301.859 346.865 299.599 347.547 295.568 348.708C293.307 349.323 291.052 350.005 288.797 350.755C282.505 352.667 277.854 354.031 274.844 354.781C274.568 354.849 274.094 354.985 273.339 355.193C270.537 356.011 267.047 356.964 262.74 358.125C258.568 359.287 254.807 359.557 249.745 360.516C248.583 360.719 247.49 360.307 246.464 359.287C246.255 359.083 246.255 358.807 246.396 358.604C247.828 355.943 252.755 354.714 255.833 353.964C258.292 353.349 260.755 352.599 263.354 351.641C268.005 349.938 270.401 348.776 274.162 347.958C274.162 347.958 276.828 347.276 282.094 345.844C286.813 344.547 292.422 342.292 298.026 341.474C300.833 341.068 303.021 339.906 305.958 339.292C310.609 338.333 314.443 337.245 317.313 336.151C326.479 332.604 333.724 330.078 338.99 328.714C339.13 328.646 341.042 327.896 344.667 326.323C347.745 325.031 350.479 322.912 353.354 321.688C356.365 320.458 358.005 319.026 361.63 317.047C365.115 315.136 369.422 311.995 372.708 309.745C373.594 309.13 374.214 308.448 374.484 307.625C375.24 305.787 376.125 305.443 377.495 304.146C377.839 303.875 377.974 303.464 377.974 302.99C377.974 300.255 380.365 298.349 381.255 295.547C382.417 291.797 385.906 288.724 389.255 288.042C391.375 287.636 394.115 286.266 395.068 284.563C396.234 282.516 397.396 280.948 398.354 279.922C398.422 279.854 398.422 279.787 398.422 279.651L397.26 271.938C397.26 271.735 397.188 271.599 397.052 271.458C395.615 269.412 394.385 268.115 393.359 267.5C390.49 265.729 388.505 264.5 387.479 263.75C382.625 260.271 376.333 257.13 372.5 255.422C370.589 254.604 366.896 253.651 361.354 252.625C361.287 252.625 361.151 252.557 361.083 252.557L351.573 248.599C351.505 248.531 351.37 248.531 351.234 248.531C347.063 247.714 343.641 246.62 335.917 244.37C333.109 243.552 329.62 243.755 327.229 243.344C323.604 242.662 320.458 241.5 317.792 239.865C317.656 239.797 317.516 239.729 317.38 239.662L310.474 238.229C310.198 238.156 309.995 238.156 309.724 238.297L307.807 238.979C307.599 239.047 307.464 239.047 307.26 238.979C304.662 237.886 301.719 236.932 298.984 236.792C298.849 236.792 297.068 236.792 293.719 236.792C289 236.865 284.896 236.932 281.547 237.136C277.99 237.339 275.802 237.406 274.912 237.339C270.396 237.136 267.115 237.474 261.917 237C259.865 236.792 257.745 236.792 255.49 236.865C254.875 236.865 254.26 236.589 253.849 236.042L253.781 235.974C253.573 235.636 253.646 235.224 253.984 235.021C254.052 234.953 254.193 234.953 254.26 234.886C256.104 234.61 258.912 234.203 262.604 233.792C263.557 233.656 264.38 233.724 265.203 233.86C268.417 234.542 271.495 234.542 274.432 233.86C274.912 233.792 275.323 233.724 275.802 233.724C279.906 233.656 282.844 233.516 284.76 233.38C290.162 232.906 294.266 233.11 299.531 232.833C303.224 232.63 306.438 233.516 309.651 234.745C310.13 234.953 310.609 235.021 311.089 235.021C313.823 235.089 317.109 235.021 319.297 235.906C321.417 236.724 324.151 237.682 326.885 238.229C329.76 238.839 333.792 238.297 336.391 239.047C338.583 239.662 340.292 240.068 341.656 240.276C345.693 240.891 349.797 242.323 353.625 243.141C354.172 243.276 354.719 243.412 355.198 243.688C358.688 245.458 362.583 247.235 366.141 247.646C368.604 247.917 370.245 248.261 371.203 248.599C377.974 251.125 383.922 254.401 388.984 258.495C393.016 261.771 395.276 263.542 395.823 263.886C396.094 264.089 396.37 264.297 396.641 264.568C397.328 265.453 398.146 266.203 399.104 266.818C399.516 267.094 399.787 267.365 399.995 267.776L401.703 270.708C401.771 270.844 401.839 270.985 401.839 271.188L402.526 275.896C402.594 276.099 402.662 276.307 402.729 276.511L403.688 278.287C403.823 278.557 403.891 278.828 403.958 279.104C404.302 280.672 404.505 283.063 404.578 286.266C404.578 287.156 404.781 289.886 405.125 294.391C405.396 297.594 405.193 300.396 405.74 303.328C405.875 303.943 405.599 305.24 404.984 307.219C403.62 311.583 403.073 316.224 402.662 320.932C402.385 324.485 401.224 329.396 400.333 331.719C399.448 333.969 398.214 336.219 396.641 338.474C394.115 342.021 391.583 345.162 389.188 347.891C382.828 354.849 375.375 359.901 366.688 362.901C366.552 362.969 366.484 362.969 366.349 363.037L357.797 367.677C357.729 367.75 357.594 367.818 357.526 367.886C356.089 369.042 355.063 369.724 354.583 370C351.438 371.636 348.292 372.932 345.281 373.891C342.479 374.776 340.427 375.458 339.13 375.938C332.427 378.323 324.016 381.261 313.823 384.807C310.609 385.901 307.599 386.99 304.729 388.151C300.901 389.583 296.318 391.083 292.625 392.589C290.297 393.542 285.51 395.386 278.193 398.115C275.115 399.276 272.448 400.026 270.193 400.365C267.526 400.776 264.724 401.729 261.646 402.141C256.313 402.823 251.521 405.349 246.531 407.193C245.229 407.667 243.042 409.031 241.13 409.578C237.438 410.604 234.63 411.354 232.719 411.761C228.885 412.583 226.63 413.057 225.88 413.266C222.802 414.151 219.724 414.833 216.714 414.969C211.792 415.177 208.714 415.313 207.412 415.448C203.927 415.86 199.547 416.677 194.281 417.906C193.802 418.042 193.323 418.042 192.776 418.042C191.682 418.042 190.724 418.042 189.974 418.177C185.323 418.995 179.51 420.089 172.537 421.453C171.443 421.656 170.276 421.792 169.182 421.792C167.271 421.792 165.422 421.865 163.646 422C162.823 422.068 161.526 421.656 160.912 421.724C156.396 422.068 150.995 421.042 146.958 420.839C141.214 420.568 135.745 420.703 130.615 421.182C126.099 421.656 122.818 421.318 117.417 421.11C117.005 421.11 116.594 421.042 116.182 420.906C114.745 420.5 112.766 420.089 110.302 419.745C109.073 419.61 106.745 418.927 103.26 417.906C99.4948 416.745 95.1876 415.313 90.3334 413.537C89.7188 413.333 87.1876 412.99 82.7396 412.443C82.2605 412.375 81.8542 412.172 81.4428 411.901L80.073 410.672C79.8021 410.464 79.8021 410.057 80.0053 409.781C80.1407 409.646 80.349 409.578 80.5521 409.578C86.3646 410.193 89.9896 410.604 91.4271 410.875C92.3855 411.078 96.0105 412.037 102.302 413.948C107.156 415.38 110.714 415.995 115.979 416.948C116.526 417.016 118.849 417.156 122.953 417.292C125.208 417.36 127.469 417.224 129.859 416.948C137.245 416.063 145.589 415.448 153.182 415.995C155.917 416.198 158.104 416.266 159.745 416.333C163.438 416.333 165.766 416.333 166.724 416.333C167.609 416.333 168.5 416.266 169.391 416.13C174.313 415.245 177.391 415.037 181.563 413.948C186.896 412.583 192.297 412.307 197.635 411.011C202.287 409.854 205.156 409.307 206.385 409.172C212.542 408.761 216.031 408.828 220.75 407.667C225.125 406.646 229.844 405.552 234.974 404.323C237.162 403.776 239.214 403.094 241.13 402.208C245.37 400.229 247.354 399.615 250.974 397.771C252.755 396.886 254.396 396.339 255.833 396.203C257.813 395.932 259.458 395.042 261.37 394.974C263.766 394.839 266.229 393.542 268.896 393.61C269.443 393.61 269.922 393.542 270.396 393.339C271.901 392.724 273.406 392.177 274.844 391.839C278.88 390.813 282.505 388.969 286.198 387.813C288.109 387.198 290.708 385.693 293.172 385.078C293.583 384.943 293.995 384.807 294.401 384.604C296.318 383.646 298.505 382.896 300.901 382.349C302.063 382.078 303.5 381.328 304.318 381.052C308.49 379.688 313.891 377.708 320.458 375.12C323.328 373.958 325.927 373.823 328.526 372.797C332.016 371.365 334.547 370.068 337.896 369.115C341.521 368.021 344.396 367.063 346.516 366.313C349.182 365.36 351.984 363.719 354.995 361.469C355.406 361.13 355.885 360.854 356.365 360.583C358.688 359.422 361.422 357.787 364.703 356.625C369.563 354.917 374.005 352.396 378.177 349.255C384.125 344.682 389.052 337.995 392.948 331.646C395 328.302 395.958 324.552 395.891 320.526C395.891 320.458 395.891 320.318 395.891 320.25L398.01 308.583C398.01 308.448 398.078 308.307 398.146 308.172C398.833 306.672 399.172 305.511 399.172 304.625C399.307 301.146 399.307 297.188 399.037 292.75C398.901 290.5 399.104 289 399.172 287.089C399.448 285.86 399.172 284.833 398.625 284.016ZM208.505 322.641C208.505 322.844 209.531 324.688 209.599 325.641C209.74 327.552 210.151 330.354 210.833 334.104C211.516 337.792 209.328 339.021 205.979 340.042C204.745 340.386 202.557 341.271 199.344 342.703C196.469 343.932 192.37 343.318 188.057 342.839C186.557 342.703 185.255 342.156 184.162 341.271C183.75 340.995 183.682 340.453 184.026 340.042C184.026 340.042 184.026 340.042 184.094 339.974C184.708 339.292 185.458 338.948 186.417 339.021C190.109 339.089 193.734 338.745 197.292 337.792C197.359 337.792 197.495 337.724 197.568 337.651L204.13 334.38C204.333 334.307 204.406 334.104 204.333 333.901C203.995 332.537 203.787 331.787 203.651 330.49C203.38 327.078 202.76 323.87 201.807 321.005C201.599 320.323 201.188 319.5 200.573 318.479C200.234 317.932 200.026 317.318 199.891 316.703C199.479 314.386 199.208 313.36 199.208 311.448C199.208 306.672 199.141 303.672 198.182 299.302C197.771 297.458 197.635 295.547 197.635 293.5C197.635 292.958 197.359 291.115 196.88 288.042C196.609 286.61 196.063 284.833 195.24 282.787C194.896 281.969 194.01 279.719 192.641 276.031C191.615 273.37 191.203 271.188 190.521 268.458C190.521 268.323 190.453 268.182 190.521 268.047C190.589 267.229 190.865 266.547 191.412 265.932C191.615 265.662 192.026 265.662 192.297 265.865C192.37 265.932 192.438 266 192.438 266.068L200.641 286.542C200.714 286.745 200.917 286.813 201.12 286.745C201.188 286.745 201.26 286.677 201.328 286.61C202.625 284.016 204.333 281.49 206.385 278.969C208.505 276.375 211.859 275.078 214.318 273.917C216.849 272.688 218.901 272.073 221.635 272.485C223.073 272.688 223.964 274.599 223.005 275.625C222.458 276.235 221.5 276.511 220.75 276.849C220.339 277.057 219.995 277.261 219.589 277.464C217.26 279.104 214.797 280.266 212.271 281.151C211.583 281.354 211.037 281.766 210.49 282.24C207.141 285.656 204.542 289.203 202.625 293.026C202.078 294.047 202.078 295.276 202.49 296.708C203.583 300.188 204.474 303.531 204.677 307.766C204.813 310.495 205.089 312.88 205.5 315C205.568 315.271 205.771 315.406 206.047 315.339H206.115L207.891 314.656C208.099 314.589 208.37 314.521 208.578 314.521C208.781 314.521 210.625 314.386 214.047 314.177C215.62 314.11 217.537 314.724 218.969 314.177C219.313 314.042 219.656 313.974 219.995 314.042L228.682 315.271H228.75C232.307 314.86 235.318 314.927 237.708 315.542C238.188 315.682 238.938 316.224 240.037 317.182C240.172 317.318 240.172 317.521 240.037 317.662C240.037 317.662 240.037 317.662 239.964 317.729C239.349 318.203 238.87 318.412 238.531 318.412C236.547 318.479 234.906 318.547 233.469 318.615C233.198 318.615 232.922 318.682 232.719 318.818L230.667 319.844C230.12 320.115 229.5 320.318 228.953 320.458C226.974 320.865 222.802 321.688 219.724 321.823C217.193 321.958 214.797 322.297 212.474 322.776C211.792 322.912 210.625 322.776 208.917 322.438C208.714 322.297 208.505 322.438 208.505 322.641C208.505 322.573 208.505 322.573 208.505 322.641ZM258.839 272.964C260.688 272.073 261.917 272.62 264.656 273.099C270.948 274.328 275.594 278.557 278.813 283.948C281.203 287.906 283.599 290.979 286.333 295.073C286.813 295.755 287.224 296.573 287.703 297.458C288.453 299.031 288.521 301.146 289.135 302.781C290.229 305.578 290.297 307.625 287.495 308.922C286.745 309.266 285.854 308.995 285.443 308.313C284.76 307.287 284.281 305.99 284.078 304.557C283.458 300.802 282.505 297.802 281.203 295.62C278.813 291.589 276.896 288.177 275.391 285.313C272.448 279.719 267.802 276.307 261.51 275.146C260.484 274.943 259.594 274.396 258.703 273.438C258.568 273.302 258.568 273.099 258.703 272.964C258.839 273.031 258.839 272.964 258.839 272.964ZM282.432 313.974C282.162 313.839 282.026 313.703 282.026 313.427C282.026 313.089 281.75 312.88 281.412 312.948C281.271 312.948 281.135 313.021 281.068 313.089C278.604 315.203 275.802 316.636 272.656 317.589C267.458 319.094 263.083 320.391 259.526 321.479C257.266 322.162 253.849 322.573 249.266 322.776C248.448 322.776 247.625 322.438 247.146 321.755L246.943 321.547C246.667 321.208 246.734 320.729 247.078 320.458C247.214 320.391 247.281 320.323 247.422 320.323C252.823 319.5 256.651 318.75 258.839 318.068C263.698 316.5 267.526 315.406 270.469 314.724C273.068 314.11 275.047 313.906 277.307 312.474C278.057 311.995 279.083 311.448 280.245 310.974C280.589 310.833 280.932 310.833 281.271 310.974C282.573 311.448 283.052 312.406 282.776 313.906C282.776 313.974 282.641 314.042 282.432 313.974C282.505 314.042 282.505 313.974 282.432 313.974ZM225.333 365.156C225.26 365.224 224.99 365.427 224.375 365.839C224.234 365.906 224.099 365.974 223.896 366.042C221.021 366.521 219.38 366.792 219.109 366.792C216.714 366.656 214.391 366.724 212.13 366.995C205.839 367.818 199.479 368.839 193.052 370.068C190.724 370.547 187.787 370.953 184.297 371.365C181.906 371.636 178.964 372.182 175.615 372.932C171.375 373.891 166.516 374.229 161.115 373.823C160.5 373.755 159.813 373.755 159.198 373.823C154.823 374.162 150.583 374.229 146.547 373.958C145.453 373.891 144.495 373.615 143.745 373.068C143.13 372.662 142.922 371.844 143.266 371.229C143.266 371.229 143.266 371.162 143.333 371.162C143.609 370.818 144.016 370.615 144.495 370.615C148.875 370.547 152.703 370.412 156.052 370.271C158.719 370.136 161.458 370.203 164.396 370.412C171.714 371.021 179.99 368.974 185.458 368.5C192.984 367.818 198.042 366.724 207.073 365.427C209.943 365.016 212.677 365.156 214.938 364.745C215.208 364.677 216.849 364.61 219.859 364.542C221.979 364.474 223.688 364.406 224.922 364.266C225.26 364.198 225.537 364.474 225.604 364.813C225.401 364.948 225.401 365.089 225.333 365.156ZM11.6876 375.526L13.9428 376.891C14.0782 376.958 14.2188 377.099 14.2865 377.167C16.4063 379.62 18.9376 381.396 21.7396 382.557C24.2709 383.578 25.8438 384.328 26.3907 384.672C28.2344 385.833 29.7396 386.854 30.8334 387.74C31.724 388.422 32.6823 389.037 33.7084 389.38C35.8959 390.198 38.1511 391.427 40.8178 392.177C47.8646 394.224 52.3751 395.521 56.4115 397.703C56.4792 397.771 56.5469 397.771 56.6198 397.771L65.099 400.573C65.7813 400.776 66.3282 401.323 66.5313 402.005L66.8073 402.688C66.9428 403.026 66.7396 403.438 66.3959 403.573C66.2605 403.641 66.1251 403.641 65.9167 403.573C64.073 403.026 61.0626 402.412 56.823 401.802C52.7865 401.255 47.8646 399.547 44.6511 398.182C42.3907 397.229 40.2709 397.229 38.1511 396.271C35.7605 395.25 33.2969 394.224 30.7657 393.136C29.948 392.792 27.8959 391.224 24.6094 388.422C24.1355 388.016 22.7657 387.333 20.5782 386.448C20.1667 386.307 19.823 386.104 19.4167 385.833C16.8855 384.193 15.1719 382.896 14.2188 382.011C12.7136 380.511 11.6198 378.531 10.8646 376.005C10.7969 375.729 10.9323 375.391 11.2761 375.323C11.3438 375.391 11.5521 375.458 11.6876 375.526Z" fill="black"></path>
</g>
</svg>